<svg aria-hidden="true" style="width:0;height:0;position:absolute;overflow:hidden" xmlns="http://www.w3.org/2000/svg"><defs><symbol id="icon-arrow-left" viewBox="0 0 32 32"><path stroke-linejoin="round" stroke-linecap="round" stroke-width="2.666" d="M25.334 16H6.666M16 25.334 6.666 16 16 6.666"/></symbol><symbol id="icon-arrow-right" viewBox="0 0 32 32"><path stroke-linejoin="round" stroke-linecap="round" stroke-width="2.666" d="M6.666 16h18.668M16 25.334 25.334 16 16 6.666"/></symbol><symbol id="icon-uparrow" viewBox="0 0 32 32"><path d="M16 32a3.692 3.692 0 0 1-3.692-3.692V3.693a3.692 3.692 0 0 1 7.384 0v24.615A3.692 3.692 0 0 1 16 32z"/><path d="M28.308 19.692a3.68 3.68 0 0 1-2.611-1.081L16 8.914l-9.697 9.697a3.693 3.693 0 0 1-5.222-5.222L13.388 1.082a3.691 3.691 0 0 1 5.221 0l12.308 12.307a3.693 3.693 0 0 1-2.611 6.303z"/></symbol><symbol id="icon-moon" viewBox="0 0 32 32"><path fill="#fff" style="fill:var(--color2,#fff)" d="M21.573 24.118c2.205 0 4.253-.672 5.952-1.82a12.378 12.378 0 0 1-10.667 6.087c-6.84 0-12.383-5.545-12.383-12.385S10.02 3.617 16.858 3.617c.237 0 .472.007.703.02-3.883 1.583-6.622 5.397-6.622 9.85.002 5.87 4.762 10.632 10.633 10.632z"/><path fill="none" stroke="#231f20" style="stroke:var(--color3,#231f20)" stroke-linejoin="round" stroke-linecap="round" stroke-miterlimit="10" stroke-width=".833" d="M21.573 24.118c-5.872 0-10.632-4.76-10.632-10.632 0-4.453 2.737-8.267 6.622-9.85-.233-.013-.468-.02-.703-.02-6.84 0-12.383 5.545-12.383 12.383s5.545 12.385 12.383 12.385c4.54 0 8.51-2.443 10.667-6.087a10.601 10.601 0 0 1-5.953 1.82z"/></symbol><symbol id="icon-sun" viewBox="0 0 32 32"><path fill="#fff" style="fill:var(--color1,#fff)" d="M4 15H1a1 1 0 0 0 0 2h3a1 1 0 0 0 0-2zM16 5a1 1 0 0 0 1-1V1a1 1 0 0 0-2 0v3a1 1 0 0 0 1 1zm9.621 2.78 2.101-2.101a.99.99 0 1 0-1.401-1.401L24.22 6.379a.99.99 0 1 0 1.401 1.401zM7.41 23.19l-2.101 2.101a.99.99 0 1 0 1.401 1.401l2.101-2.101A.99.99 0 1 0 7.41 23.19zM6.808 8.222a.999.999 0 1 0 1.414-1.414L6.101 4.686A.999.999 0 1 0 4.687 6.1l2.121 2.122zM16 27a1 1 0 0 0-1 1v3a1 1 0 0 0 2 0v-3a1 1 0 0 0-1-1zm9.192-3.222a.999.999 0 1 0-1.414 1.414l2.121 2.121a.999.999 0 1 0 1.414-1.414l-2.121-2.121zM31 15h-3a1 1 0 0 0 0 2h3a1 1 0 0 0 0-2zM16 6.994c-4.974 0-9.006 4.032-9.006 9.006s4.032 9.006 9.006 9.006 9.006-4.032 9.006-9.006S20.974 6.994 16 6.994zm0 16.004a6.998 6.998 0 1 1 0-13.996 6.998 6.998 0 0 1 0 13.996z"/></symbol><symbol id="icon-heart" viewBox="0 0 34 32"><path fill="#ff6b08" style="fill:var(--color4,#ff6b08)" d="m17.231 31.705-2.412-2.412C5.859 21.367.001 16.025.001 9.478.001 4.136 4.136.001 9.478.001c2.929 0 5.858 1.378 7.754 3.618 1.895-2.24 4.825-3.618 7.754-3.618 5.342 0 9.477 4.135 9.477 9.477 0 6.548-5.858 11.889-14.818 19.815l-2.412 2.412z"/></symbol><symbol id="icon-search" viewBox="0 0 32 32"><path fill="none" stroke="#fff" style="stroke:var(--color2,#fff)" stroke-linejoin="round" stroke-linecap="round" stroke-width="2.667" d="M14.667 25.333c5.891 0 10.667-4.776 10.667-10.667S20.558 3.999 14.667 3.999v0C8.776 3.999 4 8.775 4 14.666s4.776 10.667 10.667 10.667v0zM28 28l-5.8-5.8"/></symbol><symbol id="icon-close" viewBox="0 0 32 32"><path stroke-width="2.133" d="m8.533 8.533 14.933 14.933m-14.933.001L23.466 8.534"/></symbol><symbol id="icon-film" viewBox="0 0 32 32"><path fill="none" stroke="#fff" style="stroke:var(--color2,#fff)" stroke-linejoin="round" stroke-linecap="round" stroke-width="2.667" d="M26.427 2.667H5.574a2.907 2.907 0 0 0-2.907 2.907v20.853a2.907 2.907 0 0 0 2.907 2.907v0h20.853a2.907 2.907 0 0 0 2.907-2.907v0V5.574a2.907 2.907 0 0 0-2.907-2.907v0zm-17.094 0v26.667M22.667 2.667v26.667M2.667 16h26.667M2.667 9.333h6.667M2.667 22.667h6.667m13.333 0h6.667M22.667 9.333h6.667"/></symbol></defs></svg>