<svg aria-hidden="true" style="position: absolute; width: 0; height: 0; overflow: hidden;" version="1.1" xmlns="http://www.w3.org/2000/svg" xmlns:xlink="http://www.w3.org/1999/xlink">
<defs>
<symbol id="icon-arrow-left" viewBox="0 0 32 32">
<path stroke-linejoin="round" stroke-linecap="round" stroke-miterlimit="4" stroke-width="2.666" d="M25.334 16h-18.668M16 25.334l-9.334-9.334 9.334-9.334"></path>
</symbol>
<symbol id="icon-arrow-right" viewBox="0 0 32 32">
<path stroke-linejoin="round" stroke-linecap="round" stroke-miterlimit="4" stroke-width="2.666" d="M6.666 16h18.668M16 25.334l9.334-9.334-9.334-9.334"></path>
</symbol>
<symbol id="icon-uparrow" viewBox="0 0 32 32">
<path fill="#6ac259" style="fill: var(--color1, #6ac259)" d="M16 32c-2.039 0-3.692-1.653-3.692-3.692v-24.615c0-2.039 1.653-3.692 3.692-3.692s3.692 1.653 3.692 3.692v24.615c0 2.039-1.653 3.692-3.692 3.692z"></path>
<path fill="#6ac259" style="fill: var(--color1, #6ac259)" d="M28.308 19.692c-0.945 0-1.89-0.36-2.611-1.081l-9.697-9.697-9.697 9.697c-1.442 1.442-3.78 1.442-5.222 0s-1.442-3.78 0-5.222l12.307-12.307c1.442-1.442 3.78-1.442 5.221 0l12.308 12.307c1.442 1.442 1.442 3.78 0 5.222-0.721 0.721-1.666 1.081-2.611 1.081z"></path>
</symbol>
<symbol id="icon-moon" viewBox="0 0 32 32">
<path fill="#fff" style="fill: var(--color2, #fff)" d="M21.573 24.118c2.205 0 4.253-0.672 5.952-1.82-2.155 3.643-6.125 6.087-10.667 6.087-6.84 0-12.383-5.545-12.383-12.385s5.545-12.383 12.383-12.383c0.237 0 0.472 0.007 0.703 0.020-3.883 1.583-6.622 5.397-6.622 9.85 0.002 5.87 4.762 10.632 10.633 10.632z"></path>
<path fill="none" stroke="#231f20" style="stroke: var(--color3, #231f20)" stroke-linejoin="round" stroke-linecap="round" stroke-miterlimit="10" stroke-width="0.8333" d="M21.573 24.118c-5.872 0-10.632-4.76-10.632-10.632 0-4.453 2.737-8.267 6.622-9.85-0.233-0.013-0.468-0.020-0.703-0.020-6.84 0-12.383 5.545-12.383 12.383s5.545 12.385 12.383 12.385c4.54 0 8.51-2.443 10.667-6.087-1.7 1.148-3.748 1.82-5.953 1.82z"></path>
</symbol>
<symbol id="icon-sun" viewBox="0 0 32 32">
<path fill="#fff" style="fill: var(--color1, #fff)" d="M4 15h-3c-0.552 0-1 0.448-1 1s0.448 1 1 1h3c0.552 0 1-0.448 1-1s-0.448-1-1-1zM16 5c0.552 0 1-0.448 1-1v-3c0-0.552-0.448-1-1-1s-1 0.448-1 1v3c0 0.552 0.448 1 1 1zM25.621 7.78l2.101-2.101c0.387-0.387 0.387-1.014 0-1.401s-1.014-0.387-1.401 0l-2.101 2.101c-0.387 0.387-0.387 1.014 0 1.401s1.014 0.387 1.401 0zM7.41 23.19l-2.101 2.101c-0.387 0.387-0.387 1.014 0 1.401s1.014 0.387 1.401 0l2.101-2.101c0.387-0.387 0.387-1.014 0-1.401s-1.014-0.387-1.401 0zM6.808 8.222c0.391 0.391 1.024 0.391 1.414 0s0.39-1.024 0-1.414l-2.121-2.122c-0.391-0.391-1.024-0.391-1.414 0-0.391 0.391-0.391 1.024 0 1.414l2.121 2.122zM16 27c-0.552 0-1 0.448-1 1v3c0 0.552 0.448 1 1 1s1-0.448 1-1v-3c0-0.552-0.448-1-1-1zM25.192 23.778c-0.391-0.391-1.024-0.391-1.414 0s-0.391 1.024 0 1.414l2.121 2.121c0.391 0.391 1.024 0.391 1.414 0s0.391-1.024 0-1.414l-2.121-2.121zM31 15h-3c-0.552 0-1 0.448-1 1s0.448 1 1 1h3c0.552 0 1-0.448 1-1s-0.448-1-1-1zM16 6.994c-4.974 0-9.006 4.032-9.006 9.006s4.032 9.006 9.006 9.006 9.006-4.032 9.006-9.006-4.032-9.006-9.006-9.006zM16 22.998c-3.865 0-6.998-3.133-6.998-6.998s3.133-6.998 6.998-6.998 6.998 3.133 6.998 6.998-3.133 6.998-6.998 6.998z"></path>
</symbol>
<symbol id="icon-heart" viewBox="0 0 34 32">
<path fill="#ff6b08" style="fill: var(--color4, #ff6b08)" d="M17.231 31.705l-2.412-2.412c-8.96-7.926-14.818-13.268-14.818-19.815 0-5.342 4.135-9.477 9.477-9.477 2.929 0 5.858 1.378 7.754 3.618 1.895-2.24 4.825-3.618 7.754-3.618 5.342 0 9.477 4.135 9.477 9.477 0 6.548-5.858 11.889-14.818 19.815l-2.412 2.412z"></path>
</symbol>
<symbol id="icon-search" viewBox="0 0 32 32">
<path fill="none" stroke="#fff" style="stroke: var(--color2, #fff)" stroke-linejoin="round" stroke-linecap="round" stroke-miterlimit="4" stroke-width="2.6667" d="M14.667 25.333c5.891 0 10.667-4.776 10.667-10.667s-4.776-10.667-10.667-10.667v0c-5.891 0-10.667 4.776-10.667 10.667s4.776 10.667 10.667 10.667v0zM28 28l-5.8-5.8"></path>
</symbol>
<symbol id="icon-close" viewBox="0 0 32 32">
<path stroke-linejoin="miter" stroke-linecap="butt" stroke-miterlimit="4" stroke-width="2.1333" d="M8.533 8.533l14.933 14.933M8.533 23.467l14.933-14.933"></path>
</symbol>
<symbol id="icon-film" viewBox="0 0 32 32">
<path fill="none" stroke="#fff" style="stroke: var(--color2, #fff)" stroke-linejoin="round" stroke-linecap="round" stroke-miterlimit="4" stroke-width="2.6667" d="M26.427 2.667h-20.853c-1.605 0-2.907 1.301-2.907 2.907v0 20.853c0 1.605 1.301 2.907 2.907 2.907v0h20.853c1.605 0 2.907-1.301 2.907-2.907v0-20.853c0-1.605-1.301-2.907-2.907-2.907v0zM9.333 2.667v26.667M22.667 2.667v26.667M2.667 16h26.667M2.667 9.333h6.667M2.667 22.667h6.667M22.667 22.667h6.667M22.667 9.333h6.667"></path>
</symbol>
</defs>
</svg>
